HIERARCHY
ROOT joint_0
{
	OFFSET 0.000000 0.000000 0.000000
	CHANNELS 6 Xposition Yposition Zposition Zrotation Yrotation Xrotation 
	JOINT joint_1
	{
		OFFSET 4.520508 -1.939880 86.268921
		CHANNELS 3 Zrotation Yrotation Xrotation
		JOINT joint_2
		{
			OFFSET -4.459717 -0.438538 78.934082
			CHANNELS 3 Zrotation Yrotation Xrotation
			JOINT joint_3
			{
				OFFSET -5.197754 -0.781128 78.796997
				CHANNELS 3 Zrotation Yrotation Xrotation
				JOINT joint_4
				{
					OFFSET 2.952026 -3.710571 109.812988
					CHANNELS 3 Zrotation Yrotation Xrotation
					JOINT joint_5
					{
						OFFSET 24.716797 -5.488037 87.903931
						CHANNELS 3 Zrotation Yrotation Xrotation
						End Site
						{
							OFFSET 0.000000 0.000000 0.000000
						}
					}
				}
				JOINT joint_6
				{
					OFFSET -3.154419 -25.484680 60.934937
					CHANNELS 3 Zrotation Yrotation Xrotation
					JOINT joint_7
					{
						OFFSET -28.997192 -144.472229 -32.671997
						CHANNELS 3 Zrotation Yrotation Xrotation
						JOINT joint_8
						{
							OFFSET 19.867676 -18.614380 -249.897949
							CHANNELS 3 Zrotation Yrotation Xrotation
							JOINT joint_9
							{
								OFFSET 5.281982 -13.816650 -264.993042
								CHANNELS 3 Zrotation Yrotation Xrotation
								End Site
								{
									OFFSET 0.000000 0.000000 0.000000
								}
							}
						}
					}
				}
				JOINT joint_10
				{
					OFFSET 6.494995 21.336792 62.257935
					CHANNELS 3 Zrotation Yrotation Xrotation
					JOINT joint_11
					{
						OFFSET 31.106567 145.200745 -27.007935
						CHANNELS 3 Zrotation Yrotation Xrotation
						JOINT joint_12
						{
							OFFSET 29.119141 24.684326 -248.460083
							CHANNELS 3 Zrotation Yrotation Xrotation
							JOINT joint_13
							{
								OFFSET 21.220093 31.248413 -262.703979
								CHANNELS 3 Zrotation Yrotation Xrotation
								End Site
								{
									OFFSET 0.000000 0.000000 0.000000
								}
							}
						}
					}
				}
			}
		}
	}
	JOINT joint_14
	{
		OFFSET -15.458496 -88.861694 -109.593018
		CHANNELS 3 Zrotation Yrotation Xrotation
		JOINT joint_15
		{
			OFFSET -6.193359 6.837952 -506.710999
			CHANNELS 3 Zrotation Yrotation Xrotation
			JOINT joint_16
			{
				OFFSET -35.096680 13.289795 -435.677025
				CHANNELS 3 Zrotation Yrotation Xrotation
				JOINT joint_17
				{
					OFFSET 158.491211 -33.916565 -71.771002
					CHANNELS 3 Zrotation Yrotation Xrotation
					End Site
					{
						OFFSET 0.000000 0.000000 0.000000
					}
				}
			}
		}
	}
	JOINT joint_18
	{
		OFFSET 23.116943 86.574158 -110.082031
		CHANNELS 3 Zrotation Yrotation Xrotation
		JOINT joint_19
		{
			OFFSET -6.125854 -0.283569 -506.757019
			CHANNELS 3 Zrotation Yrotation Xrotation
			JOINT joint_20
			{
				OFFSET -63.240234 11.589966 -432.537994
				CHANNELS 3 Zrotation Yrotation Xrotation
				JOINT joint_21
				{
					OFFSET 156.074219 -41.487305 -73.077999
					CHANNELS 3 Zrotation Yrotation Xrotation
					End Site
					{
						OFFSET 0.000000 0.000000 0.000000
					}
				}
			}
		}
	}
}
MOTION
Frames: 12
Frame Time: 0.016667
-1853.461792 888.146545 1150.696045 11.945761 7.432269 2.043376 -2.776418 0.451201 1.046453 -2.767588 0.035080 -0.296008 -2.679827 0.236040 0.328735 -0.209006 -0.564308 0.592502 0.000000 0.000000 0.000000 3.384689 7.614215 -4.224846 0.385455 6.027659 8.055825 0.367651 -10.855333 -3.851054 0.000000 0.000000 0.000000 -6.229954 5.031557 0.243581 0.475545 5.667687 2.982684 -0.530134 -3.666081 -0.727364 0.000000 0.000000 0.000000 -4.769512 -34.589017 -7.133201 2.577467 37.138421 6.066881 6.431907 4.735872 3.590511 0.000000 0.000000 0.000000 -1.553076 -3.187920 1.617083 -1.146811 12.610395 3.112021 -0.402660 6.482508 1.547811 0.000000 0.000000 0.000000 
-1832.106201 881.128906 1147.683960 12.303474 8.317449 2.376528 -3.013670 -0.395651 0.772574 -2.841070 0.306757 -0.289129 -2.732511 0.028344 0.290209 -0.218665 -0.573474 0.619497 0.000000 0.000000 0.000000 2.663584 8.648422 -4.409977 0.473748 6.746569 8.780264 0.452208 -13.731358 -4.434692 0.000000 0.000000 0.000000 -5.848757 4.909940 0.750133 0.532672 5.538606 3.262425 -0.644273 -4.139621 -1.480498 0.000000 0.000000 0.000000 -4.485243 -35.462910 -7.285210 2.543873 28.997273 3.760507 4.774111 4.351801 2.887158 0.000000 0.000000 0.000000 -1.578602 -4.132041 1.684168 -1.132515 14.518220 3.473931 -0.252194 6.763343 1.687136 0.000000 0.000000 0.000000 
-1810.308716 874.062256 1142.787964 12.973531 8.705890 2.807359 -3.261562 -0.441934 0.391293 -3.057528 0.245439 -0.183673 -2.962771 -0.081239 0.267148 -0.204784 -0.585029 0.564725 0.000000 0.000000 0.000000 2.026566 9.525311 -4.728097 0.614808 7.318250 9.413262 0.540393 -16.062468 -4.848080 0.000000 0.000000 0.000000 -5.731854 4.757008 1.270820 0.587847 5.442485 3.489066 -0.764704 -4.752418 -2.137470 0.000000 0.000000 0.000000 -4.521462 -35.761570 -7.796112 2.464098 21.329329 1.858541 3.610354 5.796041 2.748560 0.000000 0.000000 0.000000 -1.689288 -4.521839 1.759331 -1.238335 16.453705 3.749847 -0.165809 6.694641 1.698922 0.000000 0.000000 0.000000 
-1788.263794 867.040161 1135.939941 13.268267 8.924950 3.015255 -3.399209 -0.242986 0.302219 -3.181488 0.192885 -0.138425 -3.082491 -0.053997 0.246649 -0.155656 -0.588419 0.390448 0.000000 0.000000 0.000000 1.502106 10.127514 -5.244229 0.772338 7.639780 9.901400 0.626704 -17.624165 -4.929479 0.000000 0.000000 0.000000 -5.989050 4.547890 1.788652 0.654572 5.368712 3.689354 -0.891443 -5.550032 -2.680526 0.000000 0.000000 0.000000 -4.731771 -36.330581 -8.340382 2.559212 15.208155 1.006235 3.113152 7.573959 2.944387 0.000000 0.000000 0.000000 -1.679828 -4.522648 2.188764 -1.192484 18.298157 3.752013 0.084921 6.081246 1.623129 0.000000 0.000000 0.000000 
-1765.777100 859.968994 1127.208008 13.373604 9.013360 3.119049 -3.478276 0.077481 0.384904 -3.259684 0.163640 -0.136543 -3.143722 0.049123 0.222842 -0.084660 -0.599722 0.139748 0.000000 0.000000 0.000000 1.051650 10.581033 -5.961919 0.956434 7.800659 10.408586 0.708376 -18.637346 -4.914290 0.000000 0.000000 0.000000 -6.492287 4.317363 2.347938 0.726518 5.346712 3.824210 -1.018129 -6.505801 -3.102175 0.000000 0.000000 0.000000 -5.056224 -36.976537 -8.914181 2.695483 9.947935 0.794049 2.942814 9.565450 3.333284 0.000000 0.000000 0.000000 -1.637006 -4.285785 2.835613 -1.098597 20.215906 3.556868 0.410039 5.038115 1.449689 0.000000 0.000000 0.000000 
-1742.607056 852.773560 1116.244995 13.889124 8.700863 3.402024 -3.635745 0.752055 0.294644 -3.480892 -0.044522 -0.057557 -3.373932 0.162439 0.208677 -0.013538 -0.537556 -0.091918 0.000000 0.000000 0.000000 0.665733 11.004330 -6.695537 1.135997 7.977092 10.793562 0.778933 -19.330260 -4.885389 0.000000 0.000000 0.000000 -7.053536 4.171778 2.862575 0.795902 5.415501 3.938276 -1.145476 -7.645498 -3.373777 0.000000 0.000000 0.000000 -5.446589 -37.350317 -9.754769 2.771474 6.510115 0.683578 2.904765 11.850364 3.860525 0.000000 0.000000 0.000000 -1.758971 -3.639838 3.425523 -1.237287 22.259834 3.327145 0.540795 3.582150 1.074461 0.000000 0.000000 0.000000 
-1718.338501 845.530151 1102.250000 14.905569 8.020252 3.951305 -3.928598 1.560825 0.001058 -3.868551 -0.342954 0.062367 -3.790797 0.249309 0.186173 0.046780 -0.324050 -0.247227 0.000000 0.000000 0.000000 0.259481 11.452486 -7.574598 1.326854 8.170959 11.142406 0.842129 -19.648616 -4.807536 0.000000 0.000000 0.000000 -7.692891 4.186206 3.363738 0.859732 5.669085 3.985421 -1.275361 -9.042611 -3.461777 0.000000 0.000000 0.000000 -5.659091 -37.417695 -11.098696 2.891709 5.508574 0.503812 2.986566 13.973445 4.410055 0.000000 0.000000 0.000000 -2.083333 -2.528109 3.962027 -1.675262 24.231895 3.016847 0.322048 1.589925 0.405086 0.000000 0.000000 0.000000 
-1693.386719 838.163513 1086.022949 15.832017 7.291260 4.459111 -4.227928 2.050406 -0.168754 -4.210469 -0.463153 0.100016 -4.136739 0.320921 0.158408 0.104214 -0.038860 -0.373205 0.000000 0.000000 0.000000 -0.072464 11.881454 -8.511864 1.503526 8.375234 11.425578 0.887771 -19.649499 -4.728273 0.000000 0.000000 0.000000 -8.389447 4.286030 3.809446 0.930525 6.010966 4.013853 -1.394556 -10.608909 -3.387714 0.000000 0.000000 0.000000 -5.658162 -37.722717 -12.425918 3.108657 6.704967 0.418080 3.218908 15.159031 4.808739 0.000000 0.000000 0.000000 -2.442072 -1.310564 4.673108 -2.139515 26.328065 2.567343 0.015269 -0.780477 -0.428670 0.000000 0.000000 0.000000 
-1668.751587 830.365967 1069.614990 16.264147 6.668704 4.616951 -4.399292 2.134395 0.005909 -4.347175 -0.363897 0.035183 -4.237305 0.385048 0.168858 0.167605 0.169818 -0.538558 0.000000 0.000000 0.000000 -0.050668 12.283143 -8.985110 1.576245 8.749842 11.339558 0.887646 -19.726282 -4.860649 0.000000 0.000000 0.000000 -8.905144 4.352987 3.992489 1.014228 6.186874 4.213930 -1.491551 -12.128837 -3.227762 0.000000 0.000000 0.000000 -5.696936 -38.902088 -12.864336 3.292956 10.140348 0.323077 3.503277 14.757687 4.861884 0.000000 0.000000 0.000000 -2.714897 -0.421265 5.616177 -2.419205 29.198253 2.126722 -0.013762 -3.051317 -1.201214 0.000000 0.000000 0.000000 
-1643.967407 821.235840 1052.482056 16.354440 5.863896 4.229991 -4.476309 2.089637 0.700566 -4.304601 -0.174239 -0.153739 -4.111727 0.449960 0.250924 0.261342 0.288482 -0.833209 0.000000 0.000000 0.000000 0.590682 12.851444 -8.626058 1.495238 9.589601 10.759264 0.817129 -20.420006 -5.396230 0.000000 0.000000 0.000000 -9.195509 4.389468 3.824750 1.117481 6.118677 4.815497 -1.580860 -13.611118 -3.052226 0.000000 0.000000 0.000000 -6.202649 -41.245995 -11.687314 3.224217 16.915152 -0.276805 3.764185 12.483871 4.464295 0.000000 0.000000 0.000000 -2.912135 0.485725 7.074819 -2.532463 33.043061 1.596970 0.327805 -4.848710 -1.872994 0.000000 0.000000 0.000000 
-1619.500000 811.676819 1035.166992 16.811636 4.589495 3.647526 -4.635265 2.692514 1.585961 -4.374264 -0.299945 -0.335804 -4.109882 0.508455 0.386159 0.365107 0.332566 -1.185543 0.000000 0.000000 0.000000 1.604118 13.400348 -7.768963 1.288295 10.611903 9.824767 0.684582 -21.172462 -6.150030 0.000000 0.000000 0.000000 -9.288066 4.388565 3.355383 1.217193 5.858960 5.631063 -1.664519 -15.039179 -2.835025 0.000000 0.000000 0.000000 -7.306351 -43.569870 -9.893722 2.706728 25.374110 -1.204425 3.926803 9.930571 3.945069 0.000000 0.000000 0.000000 -3.268698 1.584523 8.633122 -2.813526 37.482531 1.281161 0.766372 -5.986496 -2.634665 0.000000 0.000000 0.000000 
-1597.749756 804.090088 1021.353027 17.251242 3.560276 3.256869 -4.750761 3.630310 2.314562 -4.484910 -0.656512 -0.433538 -4.196190 0.585194 0.534552 0.421554 0.201573 -1.417051 0.000000 0.000000 0.000000 2.474283 13.364086 -6.992971 1.016862 11.105495 8.603211 0.551430 -20.737994 -6.750058 0.000000 0.000000 0.000000 -9.094285 4.216819 2.631077 1.270738 5.376388 6.163290 -1.723535 -16.203607 -2.512727 0.000000 0.000000 0.000000 -8.219111 -45.228742 -8.929503 2.109314 32.126461 -1.362829 3.996627 8.019308 3.516096 0.000000 0.000000 0.000000 -3.669384 1.754703 9.401899 -3.197078 42.451452 1.679658 1.320969 -6.592896 -3.619170 0.000000 0.000000 0.000000 
